SRRun01_grf
version=1
nRows=30
nColumns=19
inDegrees=no
endheader
time	ground_force_r_vx	ground_force_r_vy	ground_force_r_vz	ground_force_r_px	ground_force_r_py	ground_force_r_pz	ground_force_r_mx	ground_force_r_my	ground_force_r_mz	ground_force_l_vx	ground_force_l_vy	ground_force_l_vz	ground_force_l_px	ground_force_l_py	ground_force_l_pz	ground_force_l_mx	ground_force_l_my	ground_force_l_mz
    142.49700000	     86.59109345	   1220.18196707	   -202.32183683	      0.85869235	      0.00000000	     -0.74364613	      0.00004071	     12.32923781	      0.00006018	      0.00000000	      0.00000000	      0.00000000	      0.00000000	      0.00000000	      0.00000000	      0.00000000	      0.00000000	      0.00000000
    142.49800000	     83.65551852	   1203.59929366	   -205.65245875	      0.85840388	      0.00000000	     -0.74085891	      0.00003989	     11.04880772	      0.00005906	      0.00000000	      0.00000000	      0.00000000	      0.00000000	      0.00000000	      0.00000000	      0.00000000	      0.00000000	      0.00000000
    142.49900000	     79.95487969	   1186.74871380	   -208.46746616	      0.85806973	      0.00000000	     -0.73815954	      0.00003916	      9.38855463	      0.00005750	      0.00000000	      0.00000000	      0.00000000	      0.00000000	      0.00000000	      0.00000000	      0.00000000	      0.00000000	      0.00000000
    142.50000000	     75.85119469	   1169.60642169	   -210.79220104	      0.85770853	      0.00000000	     -0.73555642	      0.00003850	      7.35321555	      0.00005558	      0.00000000	      0.00000000	      0.00000000	      0.00000000	      0.00000000	      0.00000000	      0.00000000	      0.00000000	      0.00000000
    142.50100000	     71.75398767	   1152.17635328	   -212.64690488	      0.85734287	      0.00000000	     -0.73305400	      0.00003790	      4.97781807	      0.00005339	      0.00000000	      0.00000000	      0.00000000	      0.00000000	      0.00000000	      0.00000000	      0.00000000	      0.00000000	      0.00000000
    142.50200000	     68.08149515	   1134.48835708	   -214.04877422	      0.85699797	      0.00000000	     -0.73064933	      0.00003737	      2.33707296	      0.00005104	      0.00000000	      0.00000000	      0.00000000	      0.00000000	      0.00000000	      0.00000000	      0.00000000	      0.00000000	      0.00000000
    142.50300000	     65.21892509	   1116.59303179	   -215.01663664	      0.85669983	      0.00000000	     -0.72832915	      0.00003690	     -0.44912477	      0.00004862	      0.00000000	      0.00000000	      0.00000000	      0.00000000	      0.00000000	      0.00000000	      0.00000000	      0.00000000	      0.00000000
    142.50400000	     63.47857757	   1098.55464121	   -215.57732328	      0.85647317	      0.00000000	     -0.72606834	      0.00003650	     -3.21571576	      0.00004621	      0.00000000	      0.00000000	      0.00000000	      0.00000000	      0.00000000	      0.00000000	      0.00000000	      0.00000000	      0.00000000
    142.50500000	     63.06661028	   1080.44360486	   -215.77261694	      0.85633933	      0.00000000	     -0.72383033	      0.00003614	     -5.75899633	      0.00004389	      0.00000000	      0.00000000	      0.00000000	      0.00000000	      0.00000000	      0.00000000	      0.00000000	      0.00000000	      0.00000000
    142.50600000	     64.06034025	   1062.32971983	   -215.66550854	      0.85631438	      0.00000000	     -0.72156960	      0.00003583	     -7.84990205	      0.00004172	      0.00000000	      0.00000000	      0.00000000	      0.00000000	      0.00000000	      0.00000000	      0.00000000	      0.00000000	      0.00000000
    142.50700000	     66.39855586	   1044.27676030	   -215.34440476	      0.85640768	      0.00000000	     -0.71923653	      0.00003552	     -9.25354861	      0.00003975	      0.00000000	      0.00000000	      0.00000000	      0.00000000	      0.00000000	      0.00000000	      0.00000000	      0.00000000	      0.00000000
    142.50800000	     69.88582273	   1026.33861679	   -214.92397267	      0.85662075	      0.00000000	     -0.71678375	      0.00003519	     -9.75365656	      0.00003803	      0.00000000	      0.00000000	      0.00000000	      0.00000000	      0.00000000	      0.00000000	      0.00000000	      0.00000000	      0.00000000
    142.50900000	     74.21039345	   1008.55673943	   -214.54156636	      0.85694664	      0.00000000	     -0.71417333	      0.00003479	     -9.17955679	      0.00003658	      0.00000000	      0.00000000	      0.00000000	      0.00000000	      0.00000000	      0.00000000	      0.00000000	      0.00000000	      0.00000000
    142.51000000	     78.97401414	    990.95840170	   -214.34869378	      0.85736971	      0.00000000	     -0.71138336	      0.00003431	     -7.43266605	      0.00003541	      0.00000000	      0.00000000	      0.00000000	      0.00000000	      0.00000000	      0.00000000	      0.00000000	      0.00000000	      0.00000000
    142.51100000	     83.73061990	    973.55531756	   -214.49771142	      0.85786603	      0.00000000	     -0.70841261	      0.00003372	     -4.50888926	      0.00003451	      0.00000000	      0.00000000	      0.00000000	      0.00000000	      0.00000000	      0.00000000	      0.00000000	      0.00000000	      0.00000000
    142.51200000	     88.02979425	    956.34240834	   -215.12477917	      0.85840445	      0.00000000	     -0.70528223	      0.00003303	     -0.51351725	      0.00003388	      0.00000000	      0.00000000	      0.00000000	      0.00000000	      0.00000000	      0.00000000	      0.00000000	      0.00000000	      0.00000000
    142.51300000	     91.46023504	    939.29682614	   -216.33091572	      0.85894820	      0.00000000	     -0.70203368	      0.00003224	      4.33415876	      0.00003348	      0.00000000	      0.00000000	      0.00000000	      0.00000000	      0.00000000	      0.00000000	      0.00000000	      0.00000000	      0.00000000
    142.51400000	     93.68853875	    922.37752748	   -218.16361589	      0.85945700	      0.00000000	     -0.69872313	      0.00003138	      9.70825268	      0.00003326	      0.00000000	      0.00000000	      0.00000000	      0.00000000	      0.00000000	      0.00000000	      0.00000000	      0.00000000	      0.00000000
    142.51500000	     94.48936236	    905.52576445	   -220.60180432	      0.85988958	      0.00000000	     -0.69541304	      0.00003048	     15.19618804	      0.00003319	      0.00000000	      0.00000000	      0.00000000	      0.00000000	      0.00000000	      0.00000000	      0.00000000	      0.00000000	      0.00000000
    142.51600000	     93.76423702	    888.66689483	   -223.54681231	      0.86020657	      0.00000000	     -0.69216276	      0.00002957	     20.33021307	      0.00003321	      0.00000000	      0.00000000	      0.00000000	      0.00000000	      0.00000000	      0.00000000	      0.00000000	      0.00000000	      0.00000000
    142.51700000	     91.54771166	    871.71389639	   -226.82151833	      0.86037371	      0.00000000	     -0.68901983	      0.00002870	     24.62822595	      0.00003328	      0.00000000	      0.00000000	      0.00000000	      0.00000000	      0.00000000	      0.00000000	      0.00000000	      0.00000000	      0.00000000
    142.51800000	     88.00084383	    854.57282825	   -230.17881561	      0.86036516	      0.00000000	     -0.68601384	      0.00002789	     27.64027347	      0.00003337	      0.00000000	      0.00000000	      0.00000000	      0.00000000	      0.00000000	      0.00000000	      0.00000000	      0.00000000	      0.00000000
    142.51900000	     83.39320287	    837.15018846	   -233.31931450	      0.86016660	      0.00000000	     -0.68315363	      0.00002717	     28.99601780	      0.00003343	      0.00000000	      0.00000000	      0.00000000	      0.00000000	      0.00000000	      0.00000000	      0.00000000	      0.00000000	      0.00000000
    142.52000000	     78.07556246	    819.36173339	   -235.91689608	      0.85977775	      0.00000000	     -0.68042817	      0.00002655	     28.44789045	      0.00003345	      0.00000000	      0.00000000	      0.00000000	      0.00000000	      0.00000000	      0.00000000	      0.00000000	      0.00000000	      0.00000000
    142.52100000	     72.44639147	    801.14192820	   -237.64963536	      0.85921379	      0.00000000	     -0.67781069	      0.00002604	     25.90477068	      0.00003340	      0.00000000	      0.00000000	      0.00000000	      0.00000000	      0.00000000	      0.00000000	      0.00000000	      0.00000000	      0.00000000
    142.52200000	     66.91594372	    782.45286994	   -238.23283046	      0.85850567	      0.00000000	     -0.67526498	      0.00002562	     21.45189697	      0.00003328	      0.00000000	      0.00000000	      0.00000000	      0.00000000	      0.00000000	      0.00000000	      0.00000000	      0.00000000	      0.00000000
    142.52300000	     61.87190126	    763.29138104	   -237.45048141	      0.85769913	      0.00000000	     -0.67275270	      0.00002527	     15.35418357	      0.00003308	      0.00000000	      0.00000000	      0.00000000	      0.00000000	      0.00000000	      0.00000000	      0.00000000	      0.00000000	      0.00000000
    142.52400000	     57.64999884	    743.69309548	   -235.18162875	      0.85685270	      0.00000000	     -0.67024022	      0.00002496	      8.04186457	      0.00003279	      0.00000000	      0.00000000	      0.00000000	      0.00000000	      0.00000000	      0.00000000	      0.00000000	      0.00000000	      0.00000000
    142.52500000	     54.51201293	    723.73273205	   -231.41849153	      0.85603459	      0.00000000	     -0.66770362	      0.00002462	      0.07916183	      0.00003243	      0.00000000	      0.00000000	      0.00000000	      0.00000000	      0.00000000	      0.00000000	      0.00000000	      0.00000000	      0.00000000
    142.52600000	     52.63228345	    703.52029441	   -226.27420929	      0.85531867	      0.00000000	     -0.66513132	      0.00002421	     -7.88162962	      0.00003198	      0.00000000	      0.00000000	      0.00000000	      0.00000000	      0.00000000	      0.00000000	      0.00000000	      0.00000000	      0.00000000
